<?xml version="1.0" standalone="no"?>
<!DOCTYPE svg PUBLIC "-//W3C//DTD SVG 20010904//EN"
 "http://www.w3.org/TR/2001/REC-SVG-20010904/DTD/svg10.dtd">
<svg version="1.0" xmlns="http://www.w3.org/2000/svg"
 width="700.000000pt" height="700.000000pt" viewBox="0 0 700.000000 700.000000"
 preserveAspectRatio="xMidYMid meet">
<metadata>
Created by potrace 1.14, written by Peter Selinger 2001-2017
</metadata>
<g transform="translate(0.000000,700.000000) scale(0.100000,-0.100000)"
fill="#000000" stroke="none">
<path d="M3489 6736 c-2 -2 -20 -6 -39 -9 -35 -5 -141 -26 -580 -112 -124 -24
-236 -47 -250 -49 -115 -22 -158 -30 -245 -48 -55 -11 -111 -22 -125 -24 -14
-3 -106 -21 -205 -40 -99 -20 -191 -38 -205 -40 -57 -10 -239 -46 -460 -89
-129 -26 -255 -50 -280 -55 -74 -13 -214 -41 -225 -44 -5 -1 -32 -6 -60 -11
-27 -4 -58 -12 -67 -17 -38 -19 -129 -175 -163 -278 -37 -112 -21 -371 30
-475 21 -43 39 -59 120 -113 l95 -62 -15 -29 c-18 -36 -30 -40 -74 -29 -66 18
-136 -23 -177 -104 -23 -44 -29 -73 -38 -168 -2 -19 -4 -38 -5 -41 0 -4 -25
-10 -53 -13 -45 -6 -59 -14 -94 -51 -75 -78 -134 -278 -128 -431 4 -91 18
-149 61 -262 l36 -93 -21 -87 c-41 -175 -12 -453 56 -527 15 -17 47 -55 72
-85 65 -80 92 -111 118 -137 23 -25 29 -43 13 -43 -6 0 -20 -18 -32 -40 -28
-50 -52 -57 -136 -40 l-64 12 -33 -36 c-39 -42 -77 -119 -95 -191 -7 -27 -15
-59 -18 -70 -12 -47 -11 -273 2 -331 25 -115 50 -157 123 -209 106 -74 550
-383 632 -440 62 -43 319 -222 900 -627 156 -109 874 -608 965 -671 55 -39
136 -95 180 -126 202 -140 207 -143 245 -138 19 2 55 14 80 25 25 11 97 41
160 67 63 25 124 50 135 55 22 10 334 139 495 205 58 24 150 62 205 85 55 23
161 66 235 96 74 30 144 59 155 64 11 5 61 26 110 46 50 20 110 45 135 56 25
10 54 23 65 28 11 4 133 54 270 110 138 57 266 110 285 118 19 8 37 16 40 16
3 1 50 20 105 43 55 23 142 59 194 81 61 24 102 48 114 65 19 25 19 28 4 69
-15 38 -32 54 -148 133 -72 50 -135 97 -140 106 -15 29 -17 103 -3 136 7 18
30 47 51 65 83 72 113 108 124 154 9 34 18 48 38 55 61 24 80 75 41 116 -10
12 -134 78 -275 147 l-256 126 25 33 c14 19 24 36 21 39 -3 3 17 8 44 12 55 7
74 24 73 65 -1 31 -29 20 298 114 162 47 187 57 197 79 23 46 2 78 -84 128
-229 136 -212 121 -207 180 10 125 15 139 90 266 59 98 63 102 157 120 43 8
56 16 65 43 8 23 22 33 69 50 32 12 67 26 78 30 11 5 110 44 220 86 110 41
206 82 214 89 23 24 2 55 -70 103 -40 27 -66 50 -62 57 4 6 17 25 29 41 48 64
74 146 79 249 3 58 4 59 39 71 43 15 66 33 66 51 0 32 -25 63 -64 80 -22 10
-63 27 -91 39 -27 12 -86 36 -130 54 -44 18 -100 42 -125 54 l-45 22 0 80 c0
131 51 232 151 301 29 20 55 43 58 50 3 8 12 14 20 14 13 0 26 23 32 59 2 8
-3 29 -11 47 -10 24 -28 39 -76 62 -117 55 -371 177 -739 355 -80 38 -190 91
-245 117 -55 26 -163 78 -240 115 -77 37 -189 91 -250 120 -60 29 -173 83
-250 120 -77 37 -180 87 -230 110 -49 23 -162 77 -250 120 -88 42 -207 100
-265 127 -58 28 -179 87 -270 130 -273 132 -286 138 -301 124z"/>
</g>
</svg>
